<mxfile host="app.diagrams.net" modified="2024-02-17T23:55:18.246Z" agent="Mozilla/5.0 (Macintosh; Intel Mac OS X 10_15_7) AppleWebKit/537.36 (KHTML, like Gecko) Chrome/121.0.0.0 Safari/537.36" version="23.1.5" etag="qls9itumQBNKECsb60HC" type="github">
  <diagram name="Page-1" id="Kcj6q7FzD8qZ8-Y7QFAV">
    <mxGraphModel>
      <root>
        <mxCell id="0" />
        <mxCell id="1" parent="0" />
      </root>
    </mxGraphModel>
  </diagram>
</mxfile>
